<svg width="64" height="50" viewBox="0 0 64 50" fill="none" xmlns="http://www.w3.org/2000/svg">
<path d="M45.3139 24.7979L32.4747 15.2645C30.9743 14.1459 29.7227 12.8952 28.7202 11.5124C27.7176 10.1296 27.2163 8.62354 27.2163 6.99413C27.2163 5.05117 28.0938 3.39974 29.8489 2.03985C31.6017 0.679949 33.7308 0 36.2361 0C38.098 0 39.7917 0.390178 41.3172 1.17053C42.8427 1.95089 44.1738 2.89859 45.3105 4.01363C46.4472 2.89859 47.7794 1.95089 49.3072 1.17053C50.8304 0.390178 52.5241 0 54.3883 0C56.8959 0 59.026 0.679949 60.7789 2.03985C62.5317 3.39974 63.4103 5.05029 63.4149 6.99149C63.4149 8.62266 62.917 10.1296 61.9213 11.5124C60.9232 12.8952 59.674 14.1459 58.1735 15.2645L45.3139 24.7979ZM45.3139 21.1594L55.5273 13.584C56.7367 12.6786 57.7859 11.6763 58.6748 10.5771C59.5614 9.47788 60.0048 8.28269 60.0048 6.99149C60.0048 5.78661 59.4591 4.76052 58.3679 3.91323C57.2767 3.06593 55.9501 2.64229 54.3883 2.64229C53.0242 2.64229 51.8011 2.95848 50.719 3.59087C49.6368 4.22149 48.6649 4.96574 47.8033 5.8236L45.3139 8.24129L42.8211 5.8236C41.9572 4.96574 40.9853 4.22149 39.9054 3.59087C38.8233 2.95848 37.6002 2.64229 36.2361 2.64229C34.6788 2.64229 33.3545 3.06505 32.2633 3.91058C31.1698 4.75964 30.623 5.78661 30.623 6.99149C30.623 8.28269 31.0663 9.47788 31.953 10.5771C32.8396 11.6763 33.8888 12.6786 35.1005 13.584L45.3139 21.1594ZM13.6405 41.3624L39.4382 47.1939L59.8615 42.3057C59.7933 41.5042 59.483 40.9264 58.9306 40.5723C58.3781 40.2183 57.7529 40.0412 57.055 40.0412H40.8739C39.4325 40.0412 38.1253 39.9972 36.9522 39.9091C35.7791 39.821 34.5799 39.6114 33.3545 39.2802L25.8863 37.3831L27.039 34.7725L33.9445 36.7067C35.0403 37.029 36.2861 37.2228 37.682 37.288C39.0756 37.3514 40.9853 37.3884 43.411 37.3989C43.411 36.5745 43.2155 35.9087 42.8245 35.4014C42.4335 34.894 41.8731 34.54 41.1433 34.3392L21.5214 28.7587C21.3918 28.7252 21.2713 28.7005 21.1599 28.6847C21.0485 28.6688 20.9291 28.66 20.8018 28.6582H13.6405V41.3624ZM0 47.5612V26.016H20.72C21.0383 26.016 21.3656 26.0441 21.7021 26.1005C22.0386 26.1569 22.3512 26.2221 22.6399 26.296L42.3471 31.8898C43.5679 32.2491 44.6182 32.8947 45.498 33.8266C46.3801 34.7584 46.8212 35.9492 46.8212 37.3989H57.0516C59.1068 37.3989 60.68 37.8966 61.7712 38.8918C62.8647 39.8888 63.4115 41.1527 63.4115 42.6835V44.3085L39.6087 50L13.6371 44.1341V47.5612H0ZM3.41014 44.9189H10.2304V28.6582H3.41014V44.9189Z" fill="white"/>
</svg>
