<svg width="70" height="70" viewBox="0 0 70 70" fill="none" xmlns="http://www.w3.org/2000/svg">
<path d="M32.0835 17.5H40.8335L50.4293 7.875C50.7004 7.60162 51.023 7.38464 51.3784 7.23656C51.7339 7.08849 52.1151 7.01225 52.5001 7.01225C52.8852 7.01225 53.2664 7.08849 53.6218 7.23656C53.9772 7.38464 54.2998 7.60162 54.571 7.875L62.096 15.4292C62.6392 15.9756 62.9441 16.7149 62.9441 17.4854C62.9441 18.256 62.6392 18.9952 62.096 19.5417L55.4168 26.25H32.0835V32.0833C32.0835 32.8569 31.7762 33.5987 31.2292 34.1457C30.6822 34.6927 29.9403 35 29.1668 35C28.3932 35 27.6514 34.6927 27.1044 34.1457C26.5574 33.5987 26.2501 32.8569 26.2501 32.0833V23.3333C26.2501 21.7862 26.8647 20.3025 27.9587 19.2085C29.0526 18.1146 30.5364 17.5 32.0835 17.5ZM14.5835 32.0833V43.75L7.9043 50.4292C7.36107 50.9756 7.05615 51.7149 7.05615 52.4854C7.05615 53.256 7.36107 53.9952 7.9043 54.5417L15.4293 62.0958C15.7004 62.3692 16.023 62.5862 16.3784 62.7343C16.7339 62.8823 17.1151 62.9586 17.5001 62.9586C17.8852 62.9586 18.2664 62.8823 18.6218 62.7343C18.9772 62.5862 19.2998 62.3692 19.571 62.0958L32.0835 49.5833H43.7501C44.5237 49.5833 45.2655 49.276 45.8125 48.7291C46.3595 48.1821 46.6668 47.4402 46.6668 46.6667V43.75H49.5835C50.357 43.75 51.0989 43.4427 51.6459 42.8957C52.1928 42.3487 52.5001 41.6069 52.5001 40.8333V37.9167H55.4168C56.1903 37.9167 56.9322 37.6094 57.4792 37.0624C58.0262 36.5154 58.3335 35.7735 58.3335 35V32.0833H37.9168V35C37.9168 36.5471 37.3022 38.0308 36.2083 39.1248C35.1143 40.2188 33.6306 40.8333 32.0835 40.8333H26.2501C24.703 40.8333 23.2193 40.2188 22.1253 39.1248C21.0314 38.0308 20.4168 36.5471 20.4168 35V26.25L14.5835 32.0833Z" fill="white"/>
</svg>
