<svg width="25" height="24" viewBox="0 0 25 24" fill="none" xmlns="http://www.w3.org/2000/svg">
<path d="M17.5791 17.9998C16.4691 17.9998 15.5791 18.8898 15.5791 19.9998C15.5791 20.5302 15.7898 21.0389 16.1649 21.414C16.54 21.789 17.0487 21.9998 17.5791 21.9998C18.1095 21.9998 18.6182 21.789 18.9933 21.414C19.3684 21.0389 19.5791 20.5302 19.5791 19.9998C19.5791 19.4693 19.3684 18.9606 18.9933 18.5855C18.6182 18.2105 18.1095 17.9998 17.5791 17.9998ZM1.5791 1.99976V3.99976H3.5791L7.1791 11.5898L5.8191 14.0398C5.6691 14.3198 5.5791 14.6498 5.5791 14.9998C5.5791 15.5302 5.78981 16.0389 6.16489 16.414C6.53996 16.789 7.04867 16.9998 7.5791 16.9998H19.5791V14.9998H7.9991C7.9328 14.9998 7.86921 14.9734 7.82232 14.9265C7.77544 14.8796 7.7491 14.8161 7.7491 14.7498C7.7491 14.6998 7.7591 14.6598 7.7791 14.6298L8.6791 12.9998H16.1291C16.8791 12.9998 17.5391 12.5798 17.8791 11.9698L21.4591 5.49976C21.5291 5.33976 21.5791 5.16976 21.5791 4.99976C21.5791 4.73454 21.4737 4.48019 21.2862 4.29265C21.0987 4.10511 20.8443 3.99976 20.5791 3.99976H5.7891L4.8491 1.99976M7.5791 17.9998C6.4691 17.9998 5.5791 18.8898 5.5791 19.9998C5.5791 20.5302 5.78981 21.0389 6.16489 21.414C6.53996 21.789 7.04867 21.9998 7.5791 21.9998C8.10953 21.9998 8.61824 21.789 8.99331 21.414C9.36839 21.0389 9.5791 20.5302 9.5791 19.9998C9.5791 19.4693 9.36839 18.9606 8.99331 18.5855C8.61824 18.2105 8.10953 17.9998 7.5791 17.9998Z" fill="#39393C"/>
</svg>
