<svg width="62" height="58" viewBox="0 0 62 58" fill="none" xmlns="http://www.w3.org/2000/svg">
<path d="M31 0.5625C18.9381 0.5625 9.125 10.3756 9.125 22.4375C9.125 34.4994 18.9381 44.3125 31 44.3125C43.0619 44.3125 52.875 34.4994 52.875 22.4375C52.875 10.3756 43.0619 0.5625 31 0.5625ZM31 4.9375C40.6491 4.9375 48.5 12.7884 48.5 22.4375C48.5 32.0866 40.6491 39.9375 31 39.9375C21.3509 39.9375 13.5 32.0866 13.5 22.4375C13.5 12.7884 21.3509 4.9375 31 4.9375ZM28.8125 9.3125V11.9156C27.2356 12.4898 25.9298 13.6318 25.1506 15.1181C24.4729 16.4272 24.2689 17.9304 24.5731 19.3728C24.8422 20.6278 25.4663 21.7789 26.3713 22.6891C26.9684 23.2862 27.6794 23.7697 28.4625 24.1044C29.2456 24.4391 30.1031 24.625 31 24.625C31.3135 24.6265 31.6023 24.6819 31.8662 24.7913C32.1262 24.8969 32.3623 25.0535 32.5606 25.2519C32.759 25.4502 32.9156 25.6863 33.0212 25.9463C33.1306 26.2102 33.186 26.499 33.1875 26.8125C33.1958 27.2432 33.0742 27.6663 32.8385 28.0269C32.6029 28.3874 32.264 28.6686 31.8662 28.8337C31.6023 28.9431 31.3135 28.9985 31 29C30.6865 28.9985 30.3977 28.9431 30.1338 28.8337C29.8752 28.7257 29.6398 28.569 29.4403 28.3722C29.238 28.1665 29.0783 27.9228 28.9706 27.6551C28.8628 27.3874 28.8091 27.101 28.8125 26.8125H24.4375C24.4368 28.5147 25.1109 30.1477 26.3122 31.3538C27.0165 32.068 27.8704 32.6171 28.8125 32.9616V35.5625H33.1875V32.9594C34.291 32.5648 35.2696 31.8838 36.0231 30.9862C36.7765 30.0886 37.2776 29.0067 37.475 27.8516C37.7461 26.2111 37.3713 24.5295 36.4294 23.1594C35.9531 22.4618 35.3507 21.8594 34.6531 21.3831C33.9455 20.9011 33.1503 20.5622 32.3125 20.3856C31.8807 20.2964 31.4409 20.251 31 20.25C30.6865 20.2485 30.3977 20.1931 30.1338 20.0837C29.8738 19.9781 29.6377 19.8215 29.4394 19.6231C29.241 19.4248 29.0844 19.1887 28.9788 18.9287C28.8651 18.6543 28.8085 18.3595 28.8125 18.0625C28.814 17.749 28.8694 17.4602 28.9788 17.1963C29.0844 16.9363 29.241 16.7002 29.4394 16.5019C29.6377 16.3035 29.8738 16.1469 30.1338 16.0413C30.3977 15.9319 30.6865 15.8765 31 15.875C32.2469 15.875 33.1875 16.8156 33.1875 18.0625H37.5625C37.561 17.376 37.4517 16.6939 37.2387 16.0413C36.9162 15.0937 36.3846 14.2309 35.6833 13.5168C34.982 12.8026 34.129 12.2554 33.1875 11.9156V9.3125H28.8125ZM0.375 39.9375V57.4375H4.75V44.3125H16.5188C14.6625 43.0739 12.9718 41.6038 11.4875 39.9375H0.375ZM50.5125 39.9375C49.0282 41.6038 47.3375 43.0739 45.4813 44.3125H57.25V57.4375H61.625V39.9375H50.5125ZM9.125 48.6875V53.0625H52.875V48.6875H9.125Z" fill="white"/>
</svg>
