<svg width="111" height="120" viewBox="0 0 111 120" fill="none" xmlns="http://www.w3.org/2000/svg">
<ellipse cx="55.5" cy="60" rx="55.4902" ry="60" fill="white"/>
<path d="M106.49 60C106.49 90.9894 83.3364 115.5 55.5 115.5C27.6635 115.5 4.50977 90.9894 4.50977 60C4.50977 29.0106 27.6635 4.5 55.5 4.5C83.3364 4.5 106.49 29.0106 106.49 60Z" stroke="#006600" stroke-opacity="0.15" stroke-width="9"/>
<g clip-path="url(#clip0_306_291)">
<path d="M55.5001 27.0646C38.6441 27.0646 24.9805 41.8387 24.9805 60.0646C24.9805 78.2904 38.6441 93.0646 55.5001 93.0646C72.356 93.0646 86.0197 78.2904 86.0197 60.0646C86.0197 41.8387 72.356 27.0646 55.5001 27.0646ZM54.1045 59.0307C53.7489 59.672 53.1077 60.0646 52.4161 60.0646H52.378C51.8562 60.0646 51.3553 60.2895 50.9861 60.6886L50.2896 61.4418C49.9056 61.857 49.9056 62.5316 50.2896 62.9468L50.9861 63.6999C51.3553 64.0991 51.5633 64.6407 51.5633 65.2049V66.4517C51.5633 67.628 50.6822 68.5807 49.5943 68.5807H48.8424C48.0966 68.5807 47.4148 68.1256 47.0813 67.4031L44.2977 61.3846C43.9974 60.7352 43.1962 60.5942 42.7212 61.1078L40.3252 63.6972C39.956 64.0964 39.4551 64.3213 38.9333 64.3213H31.2333C31.0253 62.9321 30.8875 61.5176 30.8875 60.0646C30.8875 45.3902 41.9287 33.4517 55.5001 33.4517C58.1472 33.4517 60.6933 33.9187 63.0844 34.7584L56.9116 39.8853C56.2828 40.3391 56.3418 41.357 57.0174 41.723L58.3502 42.4428C59.0172 42.8034 59.4381 43.5406 59.4381 44.347V54.742C59.4381 55.3301 58.9975 55.8065 58.4536 55.8065H58.077C57.7041 55.8065 57.3633 55.579 57.1971 55.2184C57.0051 54.8032 56.4637 54.7806 56.2421 55.1784L54.1045 59.0307ZM75.1901 73.6944C75.1901 74.2586 74.9822 74.8001 74.613 75.1993L73.4353 76.4728C73.0661 76.872 72.5652 77.0968 72.0434 77.0968H70.1778C69.656 77.0968 69.1551 76.872 68.7859 76.4728L67.1849 74.7416C66.7827 74.3067 66.2831 73.9918 65.7349 73.8276C65.1867 73.6635 64.6085 73.6556 64.0566 73.8048L61.4391 74.5127C61.2828 74.5553 61.1228 74.5766 60.9616 74.5766H59.6891C59.1674 74.5766 58.6665 74.3517 58.2973 73.9525L56.8316 72.3677C56.6471 72.1679 56.5436 71.897 56.5437 71.6146V70.2573C56.5437 69.8222 56.7885 69.431 57.1627 69.2687L62.004 67.1742C62.2476 67.0691 62.479 66.932 62.6919 66.7684L65.6097 64.5209C65.7764 64.3925 65.976 64.3237 66.1807 64.324H67.6685C68.066 64.324 68.4254 64.5821 68.578 64.98L69.2364 66.6899C69.2737 66.7868 69.3368 66.8696 69.4176 66.9278C69.4984 66.9861 69.5933 67.0172 69.6905 67.0172H70.1581C70.3772 67.0172 70.5704 66.8602 70.6307 66.634L71.1475 64.7085C71.2091 64.481 71.401 64.3253 71.6201 64.3253H72.3658C72.6378 64.3253 72.8581 64.5635 72.8581 64.8576V66.5781C72.8581 66.8602 72.9615 67.1316 73.1461 67.3312L74.6117 68.916C74.9809 69.3152 75.1889 69.8568 75.1889 70.421V73.6944H75.1901Z" fill="#006600"/>
</g>
<mask id="path-4-inside-1_306_291" fill="white">
<path fill-rule="evenodd" clip-rule="evenodd" d="M69.7991 2.02633C62.9428 0.0491593 55.8126 -0.484024 48.7951 0.439588C46.393 0.755741 44.866 3.0812 45.311 5.46282C45.7751 7.94695 48.2002 9.53329 50.7124 9.25947C52.2867 9.08788 53.8838 9 55.4999 9C81.5493 9 102.667 31.8335 102.667 60C102.667 88.1665 81.5493 111 55.4999 111C51.6305 111 47.8699 110.496 44.2713 109.546C41.8114 108.896 39.1624 110.141 38.3743 112.56C37.6388 114.817 38.7995 117.275 41.0788 117.938C47.9483 119.937 55.1226 120.493 62.2103 119.56C70.693 118.442 78.8224 115.222 85.9647 110.149C93.1071 105.076 99.0694 98.2881 103.387 90.3143C107.704 82.3404 110.26 73.3962 110.855 64.1787C111.45 54.9613 110.069 45.7197 106.818 37.1746C103.567 28.6294 98.5349 21.0116 92.1137 14.9148C85.6925 8.81814 78.0559 4.40735 69.7991 2.02633Z"/>
</mask>
<path fill-rule="evenodd" clip-rule="evenodd" d="M69.7991 2.02633C62.9428 0.0491593 55.8126 -0.484024 48.7951 0.439588C46.393 0.755741 44.866 3.0812 45.311 5.46282C45.7751 7.94695 48.2002 9.53329 50.7124 9.25947C52.2867 9.08788 53.8838 9 55.4999 9C81.5493 9 102.667 31.8335 102.667 60C102.667 88.1665 81.5493 111 55.4999 111C51.6305 111 47.8699 110.496 44.2713 109.546C41.8114 108.896 39.1624 110.141 38.3743 112.56C37.6388 114.817 38.7995 117.275 41.0788 117.938C47.9483 119.937 55.1226 120.493 62.2103 119.56C70.693 118.442 78.8224 115.222 85.9647 110.149C93.1071 105.076 99.0694 98.2881 103.387 90.3143C107.704 82.3404 110.26 73.3962 110.855 64.1787C111.45 54.9613 110.069 45.7197 106.818 37.1746C103.567 28.6294 98.5349 21.0116 92.1137 14.9148C85.6925 8.81814 78.0559 4.40735 69.7991 2.02633Z" fill="#C4C4C4"/>
<path d="M69.7991 2.02633L67.3054 10.674H67.3054L69.7991 2.02633ZM62.2103 119.56L63.3857 128.483L62.2103 119.56ZM85.9647 110.149L91.1762 117.486L85.9647 110.149ZM103.387 90.3143L95.4725 86.029L95.4725 86.029L103.387 90.3143ZM110.855 64.1787L101.874 63.5988V63.5988L110.855 64.1787ZM106.818 37.1746L98.406 40.3747L106.818 37.1746ZM92.1137 14.9148L85.9168 21.4416V21.4416L92.1137 14.9148ZM44.2713 109.546L46.569 100.844L44.2713 109.546ZM41.0788 117.938L38.5641 126.58L41.0788 117.938ZM49.9695 9.36264C55.7552 8.60115 61.6366 9.03925 67.3054 10.674L72.2928 -6.62129C64.2489 -8.94094 55.8701 -9.5692 47.6207 -8.48346L49.9695 9.36264ZM51.6876 18.2065C52.9388 18.0701 54.2104 18 55.4999 18V1.18394e-06C53.5572 1.18394e-06 51.6345 0.105662 49.7372 0.312461L51.6876 18.2065ZM55.4999 18C75.9295 18 93.6665 36.1289 93.6665 60H111.667C111.667 27.538 87.1691 1.18394e-06 55.4999 1.18394e-06V18ZM93.6665 60C93.6665 83.8711 75.9295 102 55.4999 102V120C87.1691 120 111.667 92.462 111.667 60H93.6665ZM55.4999 102C52.4157 102 49.4272 101.599 46.569 100.844L41.9735 118.248C46.3127 119.393 50.8453 120 55.4999 120V102ZM61.0349 110.637C55.1915 111.406 49.2735 110.95 43.5936 109.297L38.5641 126.58C46.6231 128.925 55.0538 129.58 63.3857 128.483L61.0349 110.637ZM80.7532 102.811C74.7772 107.056 68.0274 109.716 61.0349 110.637L63.3857 128.483C73.3585 127.169 82.8675 123.388 91.1762 117.486L80.7532 102.811ZM95.4725 86.029C91.7869 92.8358 86.7331 98.5641 80.7532 102.811L91.1762 117.486C99.481 111.588 106.352 103.74 111.301 94.5995L95.4725 86.029ZM101.874 63.5988C101.361 71.5435 99.159 79.2205 95.4725 86.029L111.301 94.5995C116.25 85.4604 119.159 75.2488 119.837 64.7586L101.874 63.5988ZM98.406 40.3747C101.194 47.7025 102.387 55.654 101.874 63.5988L119.837 64.7586C120.514 54.2686 118.944 43.737 115.23 33.9744L98.406 40.3747ZM85.9168 21.4416C91.3274 26.5788 95.6188 33.0481 98.406 40.3747L115.23 33.9744C111.515 24.2107 105.742 15.4443 98.3106 8.38813L85.9168 21.4416ZM67.3054 10.674C74.1325 12.6427 80.5091 16.3072 85.9168 21.4416L98.3106 8.38813C90.8759 1.32909 81.9792 -3.82801 72.2928 -6.62129L67.3054 10.674ZM46.569 100.844C40.0881 99.1329 32.2663 102.255 29.817 109.772L46.9315 115.349C46.0585 118.028 43.5347 118.66 41.9735 118.248L46.569 100.844ZM29.817 109.772C27.6589 116.396 30.9465 124.363 38.5641 126.58L43.5936 109.297C46.6526 110.187 47.6188 113.239 46.9315 115.349L29.817 109.772ZM36.464 7.11565C37.8991 14.7968 45.0996 18.9246 51.6876 18.2065L49.7372 0.312461C51.3008 0.142039 53.6511 1.09711 54.1579 3.81L36.464 7.11565ZM47.6207 -8.48346C39.6047 -7.42844 35.166 0.167685 36.464 7.11565L54.1579 3.81C54.5661 5.99471 53.1812 8.93992 49.9695 9.36264L47.6207 -8.48346Z" fill="#006600" mask="url(#path-4-inside-1_306_291)"/>
<defs>
<clipPath id="clip0_306_291">
<rect width="61.0392" height="68.129" fill="white" transform="translate(24.9805 26)"/>
</clipPath>
</defs>
</svg>
