<svg width="111" height="120" viewBox="0 0 111 120" fill="none" xmlns="http://www.w3.org/2000/svg">
<ellipse cx="55.5" cy="60" rx="55.4902" ry="60" fill="white"/>
<path d="M106.49 60C106.49 90.9894 83.3364 115.5 55.5 115.5C27.6635 115.5 4.50977 90.9894 4.50977 60C4.50977 29.0106 27.6635 4.5 55.5 4.5C83.3364 4.5 106.49 29.0106 106.49 60Z" stroke="#006600" stroke-opacity="0.15" stroke-width="9"/>
<g clip-path="url(#clip0_306_327)">
<path d="M59.315 48.5531V44.9308C55.9531 40.2515 53.6999 34.7085 52.8654 28.7917C52.615 27.0515 50.6003 26.3683 49.5511 27.7218C47.0357 30.9316 45.0567 34.6956 43.7214 38.8722C47.7986 43.8093 53.2588 47.1996 59.315 48.5531ZM72.6674 35.2499C67.398 35.2499 63.13 39.8777 63.13 45.5753V53.2324C50.6837 52.4332 40.1211 44.1445 35.3524 32.3882C34.6967 30.7769 32.5865 30.6867 31.8951 32.2722C29.9161 36.7968 28.7954 41.8499 28.7954 47.1867C28.7954 56.3132 32.8607 64.8339 38.9408 71.1503C40.5145 72.7875 42.0524 74.141 43.5784 75.3785L26.423 80.0191C25.1474 80.3671 24.5751 81.9656 25.2904 83.1644C27.3648 86.632 32.4912 92.5101 43.5545 93C44.5083 93.0386 45.462 92.6648 46.1892 91.9816L53.9622 84.75H63.13C73.6688 84.75 82.2047 75.5332 82.2047 64.1378V43.4999L86.0197 35.2499H72.6674ZM72.6674 47.6378C71.6182 47.6378 70.7599 46.7097 70.7599 45.5753C70.7599 44.441 71.6182 43.5128 72.6674 43.5128C73.7165 43.5128 74.5748 44.441 74.5748 45.5753C74.5748 46.7097 73.7165 47.6378 72.6674 47.6378Z" fill="#006600"/>
</g>
<mask id="path-4-inside-1_306_327" fill="white">
<path fill-rule="evenodd" clip-rule="evenodd" d="M82.9156 7.83451C72.5372 1.45756 60.5697 -1.11026 48.7956 0.439587C46.3935 0.755785 44.8662 3.08135 45.3112 5.463C45.7753 7.94716 48.2004 9.53353 50.7127 9.2597C52.2869 9.08812 53.884 9.00024 55.5001 9.00024C81.5495 9.00024 102.667 31.8337 102.667 60.0002C102.667 88.1668 81.5495 111 55.5001 111C29.4506 111 8.33339 88.1668 8.33339 60.0002C8.33339 46.8333 12.948 34.8318 20.524 25.7834C21.9757 24.0495 22.0724 21.501 20.5898 19.7934C18.9341 17.8865 15.9926 17.7867 14.371 19.7227C6.44463 29.1852 1.48849 41.1732 0.291843 53.9592C-1.05614 68.3622 2.45735 82.8066 10.1844 94.6288C17.9115 106.451 29.3312 114.854 42.3375 118.288C55.3439 121.722 69.06 119.955 80.9565 113.314C92.853 106.673 102.128 95.6046 107.07 82.1506C112.013 68.6967 112.29 53.764 107.851 40.1063C103.412 26.4486 94.556 14.9868 82.9156 7.83451Z"/>
</mask>
<path fill-rule="evenodd" clip-rule="evenodd" d="M82.9156 7.83451C72.5372 1.45756 60.5697 -1.11026 48.7956 0.439587C46.3935 0.755785 44.8662 3.08135 45.3112 5.463C45.7753 7.94716 48.2004 9.53353 50.7127 9.2597C52.2869 9.08812 53.884 9.00024 55.5001 9.00024C81.5495 9.00024 102.667 31.8337 102.667 60.0002C102.667 88.1668 81.5495 111 55.5001 111C29.4506 111 8.33339 88.1668 8.33339 60.0002C8.33339 46.8333 12.948 34.8318 20.524 25.7834C21.9757 24.0495 22.0724 21.501 20.5898 19.7934C18.9341 17.8865 15.9926 17.7867 14.371 19.7227C6.44463 29.1852 1.48849 41.1732 0.291843 53.9592C-1.05614 68.3622 2.45735 82.8066 10.1844 94.6288C17.9115 106.451 29.3312 114.854 42.3375 118.288C55.3439 121.722 69.06 119.955 80.9565 113.314C92.853 106.673 102.128 95.6046 107.07 82.1506C112.013 68.6967 112.29 53.764 107.851 40.1063C103.412 26.4486 94.556 14.9868 82.9156 7.83451Z" fill="#C4C4C4"/>
<path d="M82.9156 7.83451L78.204 15.5027V15.5027L82.9156 7.83451ZM10.1844 94.6288L17.718 89.7048L10.1844 94.6288ZM42.3375 118.288L40.0401 126.99H40.0401L42.3375 118.288ZM80.9565 113.314L85.3434 121.172L80.9565 113.314ZM107.07 82.1506L115.518 85.2542V85.2542L107.07 82.1506ZM107.851 40.1063L99.2921 42.8883L107.851 40.1063ZM20.524 25.7834L13.6234 20.0057L20.524 25.7834ZM50.7127 9.2597L49.7375 0.312691L50.7127 9.2597ZM48.7956 0.439587L47.6211 -8.48344L48.7956 0.439587ZM49.9702 9.36262C59.6605 8.08706 69.5545 10.188 78.204 15.5027L87.6273 0.166373C75.52 -7.27291 61.4789 -10.3076 47.6211 -8.48344L49.9702 9.36262ZM51.6879 18.2067C52.939 18.0703 54.2106 18.0002 55.5001 18.0002V0.000244094C53.5574 0.000244094 51.6348 0.105901 49.7375 0.312691L51.6879 18.2067ZM55.5001 18.0002C75.9297 18.0002 93.6667 36.1292 93.6667 60.0002H111.667C111.667 27.5383 87.1693 0.000244094 55.5001 0.000244094V18.0002ZM93.6667 60.0002C93.6667 83.8713 75.9297 102 55.5001 102V120C87.1693 120 111.667 92.4622 111.667 60.0002H93.6667ZM55.5001 102C35.0704 102 17.3334 83.8713 17.3334 60.0002H-0.666615C-0.666615 92.4622 23.8308 120 55.5001 120V102ZM17.3334 60.0002C17.3334 48.9487 21.2031 38.9918 27.4246 31.5611L13.6234 20.0057C4.69298 30.6718 -0.666615 44.718 -0.666615 60.0002H17.3334ZM9.25268 54.7978C10.2847 43.7709 14.5537 33.5203 21.2703 25.5019L7.47164 13.9434C-1.66444 24.8502 -7.30772 38.5755 -8.669 53.1205L9.25268 54.7978ZM17.718 89.7048C11.1337 79.631 8.08942 67.2271 9.25268 54.7978L-8.669 53.1205C-10.2017 69.4973 -6.21898 85.9822 2.6509 99.5528L17.718 89.7048ZM44.635 109.586C33.896 106.751 24.2937 99.7654 17.718 89.7048L2.6509 99.5528C11.5294 113.137 24.7663 122.957 40.0401 126.99L44.635 109.586ZM76.5695 105.455C66.6787 110.977 55.356 112.416 44.635 109.586L40.0401 126.99C55.3319 131.027 71.4412 128.933 85.3434 121.172L76.5695 105.455ZM98.6225 79.047C94.3797 90.5958 86.4841 99.9207 76.5695 105.455L85.3434 121.172C99.222 113.425 109.876 100.613 115.518 85.2542L98.6225 79.047ZM99.2921 42.8883C103.109 54.6312 102.868 67.491 98.6225 79.047L115.518 85.2542C121.158 69.9023 121.472 52.8969 116.411 37.3243L99.2921 42.8883ZM78.204 15.5027C87.9231 21.4745 95.4774 31.1517 99.2921 42.8883L116.411 37.3243C111.347 21.7455 101.189 8.49918 87.6273 0.166373L78.204 15.5027ZM27.3856 13.8928C22.4365 8.19286 12.9713 7.37782 7.47164 13.9434L21.2703 25.5019C19.0138 28.1957 15.4317 27.5802 13.794 25.694L27.3856 13.8928ZM27.4246 31.5611C31.4266 26.7813 32.0517 19.2668 27.3856 13.8928L13.794 25.694C12.0931 23.7351 12.5248 21.3178 13.6234 20.0057L27.4246 31.5611ZM36.4643 7.11583C37.8993 14.797 45.0998 18.9248 51.6879 18.2067L49.7375 0.312691C51.301 0.142277 53.6513 1.09732 54.1581 3.81018L36.4643 7.11583ZM47.6211 -8.48344C39.6059 -7.4284 35.166 0.167021 36.4643 7.11583L54.1581 3.81018C54.5664 5.99567 53.181 8.93997 49.9702 9.36262L47.6211 -8.48344Z" fill="#006600" mask="url(#path-4-inside-1_306_327)"/>
<defs>
<clipPath id="clip0_306_327">
<rect width="61.0392" height="66" fill="white" transform="translate(24.9805 27)"/>
</clipPath>
</defs>
</svg>
