<svg width="111" height="120" viewBox="0 0 111 120" fill="none" xmlns="http://www.w3.org/2000/svg">
<ellipse cx="55.5" cy="60" rx="55.4902" ry="60" fill="white"/>
<path d="M106.49 60C106.49 90.9894 83.3364 115.5 55.5 115.5C27.6635 115.5 4.50977 90.9894 4.50977 60C4.50977 29.0106 27.6635 4.5 55.5 4.5C83.3364 4.5 106.49 29.0106 106.49 60Z" stroke="#006600" stroke-opacity="0.15" stroke-width="9"/>
<g clip-path="url(#clip0_306_304)">
<path d="M71.5226 53.8H57.0258V59.575C57.0258 63.669 53.9452 67 50.1589 67C46.3725 67 43.292 63.669 43.292 59.575V47.035L37.1022 51.0568C35.2615 52.2428 34.1361 54.3981 34.1361 56.7081V61.5859L26.5062 66.3503C25.047 67.2578 24.5415 69.279 25.3903 70.8568L33.0202 85.15C33.8595 86.7278 35.7288 87.264 37.188 86.3565L47.0497 80.2H60.0777C63.4444 80.2 66.1816 77.2403 66.1816 73.6H67.7076C69.3957 73.6 70.7596 72.1253 70.7596 70.3V63.7H71.5226C72.791 63.7 73.8115 62.5965 73.8115 61.225V56.275C73.8115 54.9034 72.791 53.8 71.5226 53.8ZM85.6093 49.9431L77.9794 35.65C77.1401 34.0722 75.2708 33.5359 73.8115 34.4434L63.9499 40.6H54.2027C53.0582 40.6 51.9423 40.9506 50.9695 41.6003L47.7745 43.7556C46.878 44.3537 46.3439 45.4159 46.3439 46.5503V59.575C46.3439 61.854 48.0511 63.7 50.1589 63.7C52.2666 63.7 53.9738 61.854 53.9738 59.575V50.5H71.5226C74.4696 50.5 76.8635 53.0884 76.8635 56.275V59.214L84.4934 54.4496C85.9526 53.5318 86.4486 51.5209 85.6093 49.9431Z" fill="#006600"/>
</g>
<defs>
<clipPath id="clip0_306_304">
<rect width="61.0392" height="52.8" fill="white" transform="translate(24.9805 34)"/>
</clipPath>
</defs>
</svg>
