<svg width="111" height="120" viewBox="0 0 111 120" fill="none" xmlns="http://www.w3.org/2000/svg">
<ellipse cx="55.5" cy="60" rx="55.4902" ry="60" fill="white"/>
<path d="M106.49 60C106.49 90.9894 83.3364 115.5 55.5 115.5C27.6635 115.5 4.50977 90.9894 4.50977 60C4.50977 29.0106 27.6635 4.5 55.5 4.5C83.3364 4.5 106.49 29.0106 106.49 60Z" stroke="#006600" stroke-opacity="0.15" stroke-width="9"/>
<g clip-path="url(#clip0_306_315)">
<path d="M37.1883 43.9C39.7157 43.9 41.7662 41.6828 41.7662 38.95C41.7662 36.2172 39.7157 34 37.1883 34C34.6609 34 32.6103 36.2172 32.6103 38.95C32.6103 41.6828 34.6609 43.9 37.1883 43.9ZM73.8118 43.9C76.3392 43.9 78.3898 41.6828 78.3898 38.95C78.3898 36.2172 76.3392 34 73.8118 34C71.2844 34 69.2339 36.2172 69.2339 38.95C69.2339 41.6828 71.2844 43.9 73.8118 43.9ZM85.8003 82.2728L81.6039 70.9291L77.684 75.7141L77.4933 77.5909L80.1351 84.7272C80.612 86.0162 81.7565 86.8 82.9677 86.8C83.3492 86.8 83.7307 86.7278 84.1027 86.5628C85.6668 85.8822 86.4298 83.9641 85.8003 82.2728ZM82.5385 60.6372L80.7741 52.3666C80.3354 50.3041 79.0002 48.5716 77.1976 47.7362C75.4332 46.9112 73.478 47.0453 71.8471 48.0766C69.6821 49.4584 68.0608 51.6344 67.2596 54.2022L66.1819 57.6981L64.6559 58.75V48.85C64.6559 47.9425 63.9692 47.2 63.13 47.2H47.8701C47.0309 47.2 46.3442 47.9425 46.3442 48.85V58.75L44.8086 57.6981L43.7309 54.2022C42.9393 51.6241 41.3084 49.4584 39.1434 48.0766C37.503 47.0453 35.5574 46.9112 33.793 47.7362C31.9904 48.5716 30.6552 50.3041 30.2165 52.3666L28.4616 60.6372C28.0229 62.6997 28.5283 64.8859 29.835 66.4844L36.2441 74.3116L37.2074 83.8609C37.379 85.5419 38.6952 86.8 40.2402 86.8C40.3547 86.8 40.4596 86.7897 40.5741 86.7794C42.2526 86.5834 43.4543 84.9541 43.2731 83.1391L42.3099 73.5691C42.1668 72.2284 41.6518 70.9806 40.822 69.9597L36.6923 64.9066L38.3709 57.6569L39.0195 59.7606C39.4105 61.0497 40.1544 62.1737 41.3561 63.1225L46.2297 66.4741C46.6684 66.7731 47.3837 66.9484 47.8701 66.9897H63.13C63.6164 66.9484 64.3317 66.7731 64.7704 66.4741L69.644 63.1225C70.8457 62.1737 71.5896 61.06 71.9806 59.7606L72.6292 57.6569L74.3078 64.9066L70.1781 69.9597C69.3483 70.9806 68.8333 72.2284 68.6903 73.5691L67.727 83.1391C67.5458 84.9541 68.757 86.5834 70.4261 86.7794C70.5405 86.7897 70.6454 86.8 70.7599 86.8C72.2954 86.8 73.6211 85.5522 73.7928 83.8609L74.756 74.3116L81.1651 66.4844C82.4622 64.8859 82.9772 62.6997 82.5385 60.6372ZM29.3962 70.9291L25.1998 82.2728C24.5703 83.9641 25.3333 85.8822 26.8974 86.5628C28.4997 87.2434 30.2451 86.3875 30.865 84.7272L33.5069 77.5909L33.3161 75.7141L29.3962 70.9291Z" fill="#006600"/>
</g>
<mask id="path-4-inside-1_306_315" fill="white">
<path fill-rule="evenodd" clip-rule="evenodd" d="M71.8169 2.6527C61.6407 -0.73243 50.8085 -0.871634 40.6084 2.20102C38.3383 2.88487 37.2004 5.34902 37.9532 7.59723C38.7613 10.0104 41.4221 11.233 43.8765 10.5604C47.5947 9.54151 51.4889 9.00012 55.5 9.00012C81.5494 9.00012 102.667 31.8336 102.667 60.0001C102.667 88.1666 81.5494 111 55.5 111C29.4506 111 8.33332 88.1666 8.33332 60.0001C8.33332 59.5455 8.33882 59.0923 8.34976 58.6405C8.40473 56.3694 6.7904 54.3468 4.53378 54.0849C2.22169 53.8166 0.124538 55.4958 0.046359 57.8221C-0.341673 69.3684 2.36223 80.8242 7.8745 90.7921C14.059 101.975 23.4423 110.678 34.6061 115.584C45.77 120.491 58.1076 121.334 69.754 117.987C81.4004 114.64 91.7225 107.284 99.1602 97.0319C106.598 86.7796 110.747 74.188 110.98 61.1603C111.213 48.1326 107.517 35.3769 100.452 24.8214C93.3863 14.2658 83.3349 6.48421 71.8169 2.6527Z"/>
</mask>
<path fill-rule="evenodd" clip-rule="evenodd" d="M71.8169 2.6527C61.6407 -0.73243 50.8085 -0.871634 40.6084 2.20102C38.3383 2.88487 37.2004 5.34902 37.9532 7.59723C38.7613 10.0104 41.4221 11.233 43.8765 10.5604C47.5947 9.54151 51.4889 9.00012 55.5 9.00012C81.5494 9.00012 102.667 31.8336 102.667 60.0001C102.667 88.1666 81.5494 111 55.5 111C29.4506 111 8.33332 88.1666 8.33332 60.0001C8.33332 59.5455 8.33882 59.0923 8.34976 58.6405C8.40473 56.3694 6.7904 54.3468 4.53378 54.0849C2.22169 53.8166 0.124538 55.4958 0.046359 57.8221C-0.341673 69.3684 2.36223 80.8242 7.8745 90.7921C14.059 101.975 23.4423 110.678 34.6061 115.584C45.77 120.491 58.1076 121.334 69.754 117.987C81.4004 114.64 91.7225 107.284 99.1602 97.0319C106.598 86.7796 110.747 74.188 110.98 61.1603C111.213 48.1326 107.517 35.3769 100.452 24.8214C93.3863 14.2658 83.3349 6.48421 71.8169 2.6527Z" fill="#C4C4C4"/>
<path d="M71.8169 2.6527L68.976 11.1926L71.8169 2.6527ZM7.8745 90.7921L15.7504 86.4367L15.7504 86.4367L7.8745 90.7921ZM34.6061 115.584L30.9851 123.824L34.6061 115.584ZM69.754 117.987L67.2681 109.337V109.337L69.754 117.987ZM99.1602 97.0319L106.445 102.317V102.317L99.1602 97.0319ZM110.98 61.1603L119.978 61.3212V61.3212L110.98 61.1603ZM100.452 24.8214L92.9727 29.8276V29.8276L100.452 24.8214ZM8.34976 58.6405L-0.647607 58.4228L8.34976 58.6405ZM40.6084 2.20102L38.0125 -6.41647L40.6084 2.20102ZM43.2044 10.8185C51.6301 8.28034 60.5634 8.3941 68.976 11.1926L74.6577 -5.88719C62.718 -9.85896 49.9868 -10.0236 38.0125 -6.41647L43.2044 10.8185ZM46.2551 19.2404C49.2086 18.431 52.3031 18.0001 55.5 18.0001V0.000122053C50.6746 0.000122053 45.9808 0.651975 41.498 1.88039L46.2551 19.2404ZM55.5 18.0001C75.9296 18.0001 93.6667 36.1291 93.6667 60.0001H111.667C111.667 27.5381 87.1693 0.000122053 55.5 0.000122053V18.0001ZM93.6667 60.0001C93.6667 83.8712 75.9296 102 55.5 102V120C87.1693 120 111.667 92.4621 111.667 60.0001H93.6667ZM55.5 102C35.0704 102 17.3333 83.8712 17.3333 60.0001H-0.666676C-0.666676 92.4621 23.8307 120 55.5 120V102ZM17.3333 60.0001C17.3333 59.6181 17.3379 59.2375 17.3471 58.8583L-0.647607 58.4228C-0.660297 58.9471 -0.666676 59.4729 -0.666676 60.0001H17.3333ZM15.7504 86.4367C11.0431 77.9243 8.7066 68.0831 9.04128 58.1244L-8.94856 57.5198C-9.38995 70.6537 -6.31861 83.7241 -0.00143132 95.1475L15.7504 86.4367ZM38.2272 107.345C28.9596 103.272 21.0295 95.9829 15.7504 86.4367L-0.00143265 95.1475C7.08836 107.968 17.925 118.084 30.9851 123.824L38.2272 107.345ZM67.2681 109.337C57.6567 112.099 47.4792 111.411 38.2272 107.345L30.9851 123.824C44.0608 129.57 58.5585 130.569 72.2399 126.637L67.2681 109.337ZM91.8754 91.7469C85.5597 100.453 76.8923 106.571 67.2681 109.337L72.2399 126.637C85.9085 122.708 97.8854 114.116 106.445 102.317L91.8754 91.7469ZM101.981 60.9993C101.78 72.2403 98.1978 83.0319 91.8754 91.7469L106.445 102.317C114.998 90.5274 119.713 76.1357 119.978 61.3212L101.981 60.9993ZM92.9727 29.8276C98.9884 38.8148 102.182 49.7582 101.981 60.9993L119.978 61.3212C120.243 46.5069 116.046 31.939 107.931 19.8151L92.9727 29.8276ZM68.976 11.1926C78.5062 14.3628 86.9629 20.8493 92.9727 29.8276L107.931 19.8151C99.8097 7.68239 88.1635 -1.39443 74.6577 -5.88719L68.976 11.1926ZM5.57136 45.145C-1.56748 44.3164 -8.68045 49.5419 -8.94856 57.5198L9.04128 58.1244C8.92953 61.4497 6.01086 63.3168 3.49619 63.0249L5.57136 45.145ZM17.3471 58.8583C17.5045 52.3548 12.854 45.9902 5.57136 45.145L3.49619 63.0249C0.726774 62.7035 -0.695076 60.3841 -0.647607 58.4228L17.3471 58.8583ZM29.4189 10.4549C31.9308 17.9565 39.7858 21.0132 46.2551 19.2404L41.498 1.88039C43.0584 1.45277 45.5917 2.06436 46.4875 4.73957L29.4189 10.4549ZM38.0125 -6.41647C30.4253 -4.13089 27.2087 3.85408 29.4189 10.4549L46.4875 4.73957C47.1921 6.84397 46.2514 9.90063 43.2044 10.8185L38.0125 -6.41647Z" fill="#006600" mask="url(#path-4-inside-1_306_315)"/>
<defs>
<clipPath id="clip0_306_315">
<rect width="61.0392" height="52.8" fill="white" transform="translate(24.9805 34)"/>
</clipPath>
</defs>
</svg>
